<svg width="55" height="55" viewBox="0 0 55 55" fill="none" xmlns="http://www.w3.org/2000/svg">
<g clip-path="url(#clip0_344_2)">
<path d="M1.16775 27.1708C1.16648 31.7919 2.37392 36.304 4.66985 40.2811L0.948181 53.8695L14.8542 50.2233C18.7005 52.3171 23.0099 53.4143 27.3891 53.4146H27.4006C41.8573 53.4146 53.6254 41.6508 53.6316 27.1915C53.6343 20.185 50.9082 13.5965 45.9552 8.63969C41.0031 3.68329 34.417 0.952264 27.3996 0.949066C12.9412 0.949066 1.17394 12.7122 1.16797 27.1708" fill="url(#paint0_linear_344_2)"/>
<path d="M0.231275 27.1623C0.229782 31.9497 1.4805 36.6232 3.85829 40.7426L0.00317383 54.8182L14.4078 51.0413C18.3768 53.2052 22.8454 54.3462 27.3925 54.3479H27.4043C42.3796 54.3479 54.5704 42.1609 54.5768 27.1841C54.5794 19.9258 51.7552 13.1004 46.6253 7.96605C41.4947 2.83229 34.673 0.0029845 27.4043 0C12.4264 0 0.237244 12.1853 0.231275 27.1623ZM8.80978 40.0332L8.27193 39.1794C6.01096 35.5844 4.81759 31.4299 4.8193 27.164C4.82399 14.7155 14.9551 4.5876 27.4128 4.5876C33.4457 4.59016 39.1154 6.94194 43.3798 11.2089C47.644 15.4763 49.9905 21.149 49.989 27.1824C49.9835 39.6309 39.8522 49.7601 27.4043 49.7601H27.3953C23.3421 49.7579 19.367 48.6695 15.9003 46.6125L15.0753 46.1233L6.52728 48.3644L8.80978 40.0332Z" fill="url(#paint1_linear_344_2)"/>
<path d="M20.6128 15.8067C20.1042 14.6763 19.5689 14.6535 19.0852 14.6336C18.6891 14.6166 18.2363 14.6179 17.7839 14.6179C17.3311 14.6179 16.5955 14.7882 15.9736 15.4672C15.3511 16.1468 13.5971 17.7891 13.5971 21.1294C13.5971 24.4697 16.0301 27.698 16.3693 28.1515C16.7089 28.6041 21.0662 35.6782 27.9672 38.3996C33.7026 40.6612 34.8697 40.2114 36.1145 40.098C37.3595 39.985 40.1316 38.4561 40.6972 36.8707C41.2632 35.2855 41.2632 33.9267 41.0935 33.6427C40.9238 33.3598 40.471 33.1899 39.792 32.8506C39.1131 32.5112 35.7749 30.8684 35.1526 30.6418C34.5301 30.4154 34.0776 30.3024 33.6248 30.9823C33.172 31.661 31.8718 33.1899 31.4755 33.6427C31.0796 34.0966 30.6833 34.1531 30.0046 33.8135C29.3252 33.4728 27.1386 32.7568 24.5445 30.444C22.5261 28.6443 21.1634 26.422 20.7674 25.7421C20.3713 25.0634 20.7249 24.6954 21.0654 24.3571C21.3704 24.0529 21.7446 23.5643 22.0844 23.168C22.4229 22.7715 22.5359 22.4886 22.7623 22.0358C22.9889 21.5826 22.8755 21.1861 22.706 20.8465C22.5359 20.5069 21.2165 17.1491 20.6128 15.8067Z" fill="white"/>
</g>
<defs>
<linearGradient id="paint0_linear_344_2" x1="2635.12" y1="5292.99" x2="2635.12" y2="0.949066" gradientUnits="userSpaceOnUse">
<stop stop-color="#1FAF38"/>
<stop offset="1" stop-color="#60D669"/>
</linearGradient>
<linearGradient id="paint1_linear_344_2" x1="2728.69" y1="5481.82" x2="2728.69" y2="0" gradientUnits="userSpaceOnUse">
<stop stop-color="#F9F9F9"/>
<stop offset="1" stop-color="white"/>
</linearGradient>
<clipPath id="clip0_344_2">
<rect width="54.58" height="55" fill="white"/>
</clipPath>
</defs>
</svg>
