<svg width="44" height="45" viewBox="0 0 44 45" fill="none" xmlns="http://www.w3.org/2000/svg">
<path d="M22.0001 3.75C11.8801 3.75 3.66675 12.15 3.66675 22.5C3.66675 32.85 11.8801 41.25 22.0001 41.25C32.1201 41.25 40.3334 32.85 40.3334 22.5C40.3334 12.15 32.1201 3.75 22.0001 3.75ZM30.5067 16.5C30.2317 19.4625 29.0401 26.6625 28.4351 29.9812C28.1784 31.3875 27.6651 31.8563 27.1884 31.9125C26.1251 32.0063 25.3184 31.2 24.2917 30.5063C22.6784 29.4188 21.7617 28.7438 20.2034 27.6938C18.3884 26.475 19.5617 25.8 20.6067 24.7125C20.8817 24.4312 25.5751 20.0625 25.6667 19.6687C25.6795 19.6091 25.6778 19.5472 25.6618 19.4884C25.6458 19.4296 25.6161 19.3756 25.5751 19.3313C25.4651 19.2375 25.3184 19.275 25.1901 19.2937C25.0251 19.3313 22.4584 21.075 17.4534 24.525C16.7201 25.0312 16.0601 25.2937 15.4734 25.275C14.8134 25.2562 13.5667 24.9 12.6317 24.5812C11.4767 24.2062 10.5784 24 10.6517 23.3438C10.6884 23.0063 11.1467 22.6687 12.0084 22.3125C17.3617 19.9312 20.9184 18.3563 22.6967 17.6063C27.7934 15.4313 28.8384 15.0562 29.5351 15.0562C29.6817 15.0562 30.0301 15.0937 30.2501 15.2812C30.4334 15.4312 30.4884 15.6375 30.5067 15.7875C30.4884 15.9 30.5251 16.2375 30.5067 16.5Z" fill="black"/>
</svg>
