<svg width="55" height="52" viewBox="0 0 55 52" fill="none" xmlns="http://www.w3.org/2000/svg">
<path d="M9.75 40.1667C9.75 34.5 21.5833 31.3833 27.5 31.3833C33.4167 31.3833 45.25 34.5 45.25 40.1667V43H9.75M36.375 17.5C36.375 19.7543 35.44 21.9163 33.7756 23.5104C32.1112 25.1045 29.8538 26 27.5 26C25.1462 26 22.8888 25.1045 21.2244 23.5104C19.56 21.9163 18.625 19.7543 18.625 17.5C18.625 15.2457 19.56 13.0837 21.2244 11.4896C22.8888 9.89553 25.1462 9 27.5 9C29.8538 9 32.1112 9.89553 33.7756 11.4896C35.44 13.0837 36.375 15.2457 36.375 17.5ZM0.875 6.16667V45.8333C0.875 47.3362 1.49836 48.7776 2.60795 49.8403C3.71754 50.903 5.22247 51.5 6.79167 51.5H48.2083C49.7775 51.5 51.2825 50.903 52.392 49.8403C53.5016 48.7776 54.125 47.3362 54.125 45.8333V6.16667C54.125 4.66377 53.5016 3.22243 52.392 2.15973C51.2825 1.09702 49.7775 0.5 48.2083 0.5H6.79167C5.22247 0.5 3.71754 1.09702 2.60795 2.15973C1.49836 3.22243 0.875 4.66377 0.875 6.16667Z" fill="white"/>
</svg>
